<svg xmlns="http://www.w3.org/2000/svg" xmlns:svg="http://www.w3.org/2000/svg" xmlns:xlink="http://www.w3.org/1999/xlink" version="1.0" height="590.0000000000001pt" width="860pt" viewBox="295 57 868 596.0000000000001" ><defs><style type="text/css">
            @font-face {
                font-family: 'lt_regular';
                src: url('https://app.creately.com/diagram/assets/fonts/lato/lt-regular-webfont.woff2') format('woff2'),
                    url('https://app.creately.com/diagram/assets/fonts/lato/lt-regular-webfont.woff') format('woff');
                font-weight: normal;
                font-style: normal;
            }
            @font-face {
                font-family: 'noto_regular';
                src: url('https://app.creately.com/diagram/assets/fonts/noto/noto-regular.woff') format('woff'),
                     url('https://app.creately.com/diagram/assets/fonts/noto/noto-regular.woff2') format('woff2');
                font-weight: normal;
                font-style: normal;
            }
        p {
            margin: 0;
        }
        </style></defs><defs><style>
            span{ display: inline-block; }
        </style></defs><g id="aLDLOWW4660"><g transform="translate(490 150)"><rect x="0" y="0" width="100.00000000000004" height="29" fill="rgb(31,89,134)" stroke="#1f5986" stroke-width="2" stroke-linecap="round" stroke-linejoin="round" stroke-dasharray="0 0"/><path d="M 50.00000000000002,29 L 50.00000000000002,499.9999999999999" fill="rgb(31,89,134)" stroke="#1f5986" stroke-width="2" stroke-linecap="round" stroke-linejoin="round" stroke-dasharray="3 3"/><rect x="0" y="0" width="100.00000000000004" height="499.9999999999999" fill="rgba(255,255,255,0.01)" stroke="rgba(255,255,255,0.01)" stroke-width="2" stroke-linecap="round" stroke-linejoin="round" stroke-dasharray="3 3"/></g><g transform="translate(506.5, 155) rotate(0, 33.5, 0)" width="67" height="19"><text text-decoration="none" x="1" fill="#ffffff" font-size="10pt" font-family="lt_regular"  y="15">:Homepage</text><text text-decoration="none" x="66" fill="#4b4b4b" font-size="10pt" font-family="noto_regular"  y="15"></text></g></g><g id="eMmLoHIlDXd"><g transform="translate(690 150)"><rect x="0" y="0" width="90.00000000000003" height="29" fill="rgb(31,89,134)" stroke="#1f5986" stroke-width="2" stroke-linecap="round" stroke-linejoin="round" stroke-dasharray="0 0"/><path d="M 45.000000000000014,29 L 45.000000000000014,499.9999999999999" fill="rgb(31,89,134)" stroke="#1f5986" stroke-width="2" stroke-linecap="round" stroke-linejoin="round" stroke-dasharray="3 3"/><rect x="0" y="0" width="90.00000000000003" height="499.9999999999999" fill="rgba(255,255,255,0.01)" stroke="rgba(255,255,255,0.01)" stroke-width="2" stroke-linecap="round" stroke-linejoin="round" stroke-dasharray="3 3"/></g><g transform="translate(709, 155) rotate(0, 26, 0)" width="52" height="19"><text text-decoration="none" x="0.5" fill="#ffffff" font-size="10pt" font-family="lt_regular"  y="15">Web&#160;</text><text text-decoration="none" x="30.5" fill="#ffffff" font-size="10pt" font-family="lt_regular"  y="15">API</text><text text-decoration="none" x="51.5" fill="#4b4b4b" font-size="10pt" font-family="noto_regular"  y="15"></text></g></g><g id="mjUxGf42zZJ"><g transform="translate(870 150)"><rect x="0" y="0" width="110.00000000000006" height="29" fill="rgb(31,89,134)" stroke="#1f5986" stroke-width="2" stroke-linecap="round" stroke-linejoin="round" stroke-dasharray="0 0"/><path d="M 55.00000000000003,29 L 55.00000000000003,499.9999999999999" fill="rgb(31,89,134)" stroke="#1f5986" stroke-width="2" stroke-linecap="round" stroke-linejoin="round" stroke-dasharray="3 3"/><rect x="0" y="0" width="110.00000000000006" height="499.9999999999999" fill="rgba(255,255,255,0.01)" stroke="rgba(255,255,255,0.01)" stroke-width="2" stroke-linecap="round" stroke-linejoin="round" stroke-dasharray="3 3"/></g><g transform="translate(904, 155) rotate(0, 21, 0)" width="42" height="19"><text text-decoration="none" x="0" fill="#ffffff" font-size="10pt" font-family="lt_regular"  y="15">Service</text><text text-decoration="none" x="42" fill="#4b4b4b" font-size="10pt" font-family="noto_regular"  y="15"></text></g></g><g id="Hs7t9eGum4Q"><g transform="translate(1060 150)"><rect x="0" y="0" width="100.00000000000004" height="29" fill="rgb(31,89,134)" stroke="#1f5986" stroke-width="2" stroke-linecap="round" stroke-linejoin="round" stroke-dasharray="0 0"/><path d="M 50.00000000000002,29 L 50.00000000000002,500.0000000000001" fill="rgb(31,89,134)" stroke="#1f5986" stroke-width="2" stroke-linecap="round" stroke-linejoin="round" stroke-dasharray="3 3"/><rect x="0" y="0" width="100.00000000000004" height="500.0000000000001" fill="rgba(255,255,255,0.01)" stroke="rgba(255,255,255,0.01)" stroke-width="2" stroke-linecap="round" stroke-linejoin="round" stroke-dasharray="3 3"/></g><g transform="translate(1100.5, 155) rotate(0, 9.5, 0)" width="19" height="19"><text text-decoration="none" x="0.5" fill="#ffffff" font-size="10pt" font-family="lt_regular"  y="15">DB</text><text text-decoration="none" x="18.5" fill="#4b4b4b" font-size="10pt" font-family="noto_regular"  y="15"></text></g></g><g id="1fb8PikPXQf"><g transform="translate(300 150)"><rect x="0" y="0" width="99.99999999999997" height="29" fill="rgb(31,89,134)" stroke="#1f5986" stroke-width="2" stroke-linecap="round" stroke-linejoin="round" stroke-dasharray="0 0"/><path d="M 49.999999999999986,29 L 49.999999999999986,459.99999999999994" fill="rgb(31,89,134)" stroke="#1f5986" stroke-width="2" stroke-linecap="round" stroke-linejoin="round" stroke-dasharray="3 3"/><rect x="0" y="0" width="99.99999999999997" height="459.99999999999994" fill="rgba(255,255,255,0.01)" stroke="rgba(255,255,255,0.01)" stroke-width="2" stroke-linecap="round" stroke-linejoin="round" stroke-dasharray="3 3"/></g><g transform="translate(336.5, 155) rotate(0, 13.5, 0)" width="27" height="19"><text text-decoration="none" x="0" fill="#ffffff" font-size="10pt" font-family="lt_regular"  y="15">User</text><text text-decoration="none" x="28" fill="#4b4b4b" font-size="10pt" font-family="noto_regular"  y="15"></text></g></g><g id="sWPWaMWZvcB"><g transform="translate(340 200)"><rect x="0" y="0" width="20" height="350" fill="rgb(36,175,175)" stroke="#24AFAF" stroke-width="2" stroke-linecap="round" stroke-linejoin="round"/></g></g><g id="oB3LXlZYtq2"><g transform="translate(530 200)"><rect x="0" y="0" width="20" height="350" fill="rgb(36,175,175)" stroke="#24AFAF" stroke-width="2" stroke-linecap="round" stroke-linejoin="round"/></g></g><g id="ekNagFS2uVZ"><g transform="translate(730 220)"><rect x="0" y="0" width="20" height="350" fill="rgb(36,175,175)" stroke="#24AFAF" stroke-width="2" stroke-linecap="round" stroke-linejoin="round"/></g></g><g id="BSqUVSb1mEi"><g transform="translate(909.9999999999999 320)"><rect x="0" y="0" width="20" height="290.00000000000006" fill="rgb(36,175,175)" stroke="#24AFAF" stroke-width="2" stroke-linecap="round" stroke-linejoin="round"/></g></g><g id="olGNfIRtvsL"><g transform="translate(1100 460)"><rect x="0" y="0" width="20" height="110.00000000000011" fill="rgb(36,175,175)" stroke="#24AFAF" stroke-width="2" stroke-linecap="round" stroke-linejoin="round"/></g></g><g id="WNOEpp5XxfG"><mask id="8d2fe" x="345" y="195" width="199" height="29" maskUnits="userSpaceOnUse"><rect x="345" y="195" width="199" height="29" fill="white" />undefined</mask><g mask="url(#8d2fe)"><path d="M 359,209 L 434.5,209 Q 435.6180339887499,209 445,210 Q 454,210 454.5,210 L 530,210" fill="none" stroke="#9A9A9A" stroke-width="2" stroke-linecap="round" stroke-linejoin="round"/><path d="M 530,210 Q 526.5217391304348,208.20000031304343 521.304347826087,201.00000156521713 Q 521.304347826087,210 527.304347826087,210 Q 521.304347826087,210 521.304347826087,218.99999843478287 Q 526.5217391304348,211.79999968695657 530,210 Z" fill="rgb(154,154,154)" stroke="#9A9A9A" stroke-width="2" stroke-linecap="round" stroke-linejoin="round"/></g>undefined</g><g id="vgtqqnBNim2"><mask id="740c3" x="346" y="236" width="198" height="28" maskUnits="userSpaceOnUse"><rect x="346" y="236" width="198" height="28" fill="white" />undefined</mask><g mask="url(#740c3)"><path d="M 530,250 L 360,250" fill="none" stroke="#9A9A9A" stroke-width="2" stroke-linecap="round" stroke-linejoin="round"/><path d="M 360,250 Q 363.4782608695652,251.79999968695657 368.69565217391306,258.99999843478287 Q 368.69565217391306,250 362.69565217391306,250 Q 368.69565217391306,250 368.69565217391306,241.00000156521713 Q 363.4782608695652,248.20000031304343 360,250 Z" fill="rgb(154,154,154)" stroke="#9A9A9A" stroke-width="2" stroke-linecap="round" stroke-linejoin="round"/></g>undefined</g><g id="RNd59fTX2tH"><mask id="0bc4d" x="346" y="296" width="198" height="28" maskUnits="userSpaceOnUse"><rect x="346" y="296" width="198" height="28" fill="white" />undefined</mask><g mask="url(#0bc4d)"><path d="M 530,310 L 360,310" fill="none" stroke="#9A9A9A" stroke-width="2" stroke-linecap="round" stroke-linejoin="round"/><path d="M 530,310 Q 526.5217391304348,308.2000003130434 521.304347826087,301.00000156521713 Q 521.304347826087,310 527.304347826087,310 Q 521.304347826087,310 521.304347826087,318.99999843478287 Q 526.5217391304348,311.7999996869566 530,310 Z" fill="rgb(154,154,154)" stroke="#9A9A9A" stroke-width="2" stroke-linecap="round" stroke-linejoin="round"/></g>undefined</g><g id="NZD0fwtac0h"><mask id="a7287" x="346" y="456" width="198" height="28" maskUnits="userSpaceOnUse"><rect x="346" y="456" width="198" height="28" fill="white" />undefined</mask><g mask="url(#a7287)"><path d="M 530,470 L 360,470" fill="none" stroke="#9A9A9A" stroke-width="2" stroke-linecap="round" stroke-linejoin="round"/><path d="M 360,470 Q 363.4782608695652,471.7999996869566 368.69565217391306,478.99999843478287 Q 368.69565217391306,470 362.69565217391306,470 Q 368.69565217391306,470 368.69565217391306,461.00000156521713 Q 363.4782608695652,468.2000003130434 360,470 Z" fill="rgb(154,154,154)" stroke="#9A9A9A" stroke-width="2" stroke-linecap="round" stroke-linejoin="round"/></g>undefined</g><g id="LrEecMHP5WV"><mask id="b02b0" x="346" y="516" width="198" height="28" maskUnits="userSpaceOnUse"><rect x="346" y="516" width="198" height="28" fill="white" />undefined</mask><g mask="url(#b02b0)"><path d="M 530,530 L 360,530" fill="none" stroke="#9A9A9A" stroke-width="2" stroke-linecap="round" stroke-linejoin="round"/><path d="M 360,530 Q 363.4782608695652,531.7999996869565 368.69565217391306,538.9999984347829 Q 368.69565217391306,530 362.69565217391306,530 Q 368.69565217391306,530 368.69565217391306,521.0000015652171 Q 363.4782608695652,528.2000003130435 360,530 Z" fill="rgb(154,154,154)" stroke="#9A9A9A" stroke-width="2" stroke-linecap="round" stroke-linejoin="round"/></g>undefined</g><g id="vhWbQRF9JG3"><mask id="84526" x="346" y="376" width="198" height="28" maskUnits="userSpaceOnUse"><rect x="346" y="376" width="198" height="28" fill="white" />undefined</mask><g mask="url(#84526)"><path d="M 360,390 L 530,390" fill="none" stroke="#9A9A9A" stroke-width="2" stroke-linecap="round" stroke-linejoin="round"/><path d="M 530,390 Q 526.5217391304348,388.2000003130434 521.304347826087,381.00000156521713 Q 521.304347826087,390 527.304347826087,390 Q 521.304347826087,390 521.304347826087,398.99999843478287 Q 526.5217391304348,391.7999996869566 530,390 Z" fill="rgb(154,154,154)" stroke="#9A9A9A" stroke-width="2" stroke-linecap="round" stroke-linejoin="round"/></g>undefined</g><g id="J6xlLz6GKRx"><g transform="translate(380 180)"><rect x="0" y="0" width="130" height="40.00000000000001" fill="rgba(255,255,255,0.01)" stroke="rgba(255,255,255,0.01)"/></g><g transform="translate(390, 190) rotate(0, 0, 0)" width="104" height="19"><text text-decoration="none" x="0" fill="rgb(75, 75, 75)" font-size="10pt" font-family="lt_regular"  y="15">1.Click&#160;</text><text text-decoration="none" x="42" fill="rgb(75, 75, 75)" font-size="10pt" font-family="lt_regular"  y="15">on&#160;</text><text text-decoration="none" x="59" fill="rgb(75, 75, 75)" font-size="10pt" font-family="lt_regular"  y="15">register</text><text text-decoration="none" x="104" fill="#4b4b4b" font-size="10pt" font-family="noto_regular"  y="15"></text></g></g><g id="yI9Rltb6R0d"><g transform="translate(370 220)"><rect x="0" y="0" width="159.99999999999997" height="40.00000000000001" fill="rgba(255,255,255,0.01)" stroke="rgba(255,255,255,0.01)"/></g><g transform="translate(380, 230) rotate(0, 0, 0)" width="139" height="19"><text text-decoration="none" x="0" fill="rgb(75, 75, 75)" font-size="10pt" font-family="lt_regular"  y="15">4.Display&#160;</text><text text-decoration="none" x="56" fill="rgb(75, 75, 75)" font-size="10pt" font-family="lt_regular"  y="15">Register&#160;</text><text text-decoration="none" x="107" fill="rgb(75, 75, 75)" font-size="10pt" font-family="lt_regular"  y="15">field()</text><text text-decoration="none" x="137" fill="#4b4b4b" font-size="10pt" font-family="noto_regular"  y="15"></text></g></g><g id="98ZRc8kx1u4"><g transform="translate(380 280)"><rect x="0" y="0" width="149.99999999999997" height="39.00000000000001" fill="rgba(255,255,255,0.01)" stroke="rgba(255,255,255,0.01)"/></g><g transform="translate(390, 290) rotate(0, 0, 0)" width="118" height="19"><text text-decoration="none" x="0" fill="rgb(84, 84, 84)" font-size="10pt" font-family="lt_regular"  y="15">5.Enter&#160;</text><text text-decoration="none" x="46" fill="rgb(84, 84, 84)" font-size="10pt" font-family="lt_regular"  y="15">user&#160;</text><text text-decoration="none" x="74" fill="rgb(84, 84, 84)" font-size="10pt" font-family="lt_regular"  y="15">details()</text><text text-decoration="none" x="117" fill="#4b4b4b" font-size="10pt" font-family="noto_regular"  y="15"></text></g></g><g id="BPiM1OWnncq"><g transform="translate(370 350)"><rect x="0" y="0" width="159.99999999999997" height="56.99999999999999" fill="rgba(255,255,255,0.01)" stroke="rgba(255,255,255,0.01)"/></g><g transform="translate(380, 360) rotate(0, 0, 0)" width="132" height="19"><text text-decoration="none" x="0" fill="rgb(84, 84, 84)" font-size="10pt" font-family="lt_regular"  y="15">6.Click&#160;</text><text text-decoration="none" x="42" fill="rgb(84, 84, 84)" font-size="10pt" font-family="lt_regular"  y="15">submit&#160;</text><text text-decoration="none" x="84" fill="rgb(84, 84, 84)" font-size="10pt" font-family="lt_regular"  y="15">button()</text><text text-decoration="none" x="128" fill="#4b4b4b" font-size="10pt" font-family="noto_regular"  y="15"></text></g></g><g id="xW8DiKDhXC6"><g transform="translate(370 430)"><rect x="0" y="0" width="180.00000000000003" height="39" fill="rgba(255,255,255,0.01)" stroke="rgba(255,255,255,0.01)"/></g><g transform="translate(380, 440) rotate(0, 0, 0)" width="143" height="19"><text text-decoration="none" x="0" fill="rgb(84, 84, 84)" font-size="10pt" font-family="lt_regular"  y="15">10.ReEnter&#160;</text><text text-decoration="none" x="69" fill="rgb(84, 84, 84)" font-size="10pt" font-family="lt_regular"  y="15">information()</text><text text-decoration="none" x="141" fill="#4b4b4b" font-size="10pt" font-family="noto_regular"  y="15"></text></g></g><g id="qEa4Cjv22en"><mask id="be39c" x="536" y="236" width="208" height="28" maskUnits="userSpaceOnUse"><rect x="536" y="236" width="208" height="28" fill="white" />undefined</mask><g mask="url(#be39c)"><path d="M 730,250 L 550,250" fill="none" stroke="#9A9A9A" stroke-width="2" stroke-linecap="round" stroke-linejoin="round"/><path d="M 730,250 Q 726.5217391304348,248.20000031304343 721.304347826087,241.00000156521713 Q 721.304347826087,250 727.304347826087,250 Q 721.304347826087,250 721.304347826087,258.99999843478287 Q 726.5217391304348,251.79999968695657 730,250 Z" fill="rgb(154,154,154)" stroke="#9A9A9A" stroke-width="2" stroke-linecap="round" stroke-linejoin="round"/></g>undefined</g><g id="tHVjOViM2wd"><mask id="b8931" x="536" y="276" width="208" height="28" maskUnits="userSpaceOnUse"><rect x="536" y="276" width="208" height="28" fill="white" />undefined</mask><g mask="url(#b8931)"><path d="M 730,290 L 550,290" fill="none" stroke="#9A9A9A" stroke-width="2" stroke-linecap="round" stroke-linejoin="round"/><path d="M 550,290 Q 553.4782608695652,291.7999996869566 558.695652173913,298.99999843478287 Q 558.695652173913,290 552.695652173913,290 Q 558.695652173913,290 558.695652173913,281.00000156521713 Q 553.4782608695652,288.2000003130434 550,290 Z" fill="rgb(154,154,154)" stroke="#9A9A9A" stroke-width="2" stroke-linecap="round" stroke-linejoin="round"/></g>undefined</g><g id="JIeW84mDE8O"><mask id="9c549" x="536" y="376" width="208" height="28" maskUnits="userSpaceOnUse"><rect x="536" y="376" width="208" height="28" fill="white" />undefined</mask><g mask="url(#9c549)"><path d="M 730,390 L 550,390" fill="none" stroke="#9A9A9A" stroke-width="2" stroke-linecap="round" stroke-linejoin="round"/><path d="M 730,390 Q 726.5217391304348,388.2000003130434 721.304347826087,381.00000156521713 Q 721.304347826087,390 727.304347826087,390 Q 721.304347826087,390 721.304347826087,398.99999843478287 Q 726.5217391304348,391.7999996869566 730,390 Z" fill="rgb(154,154,154)" stroke="#9A9A9A" stroke-width="2" stroke-linecap="round" stroke-linejoin="round"/></g>undefined</g><g id="If6iXWPhwKQ"><mask id="a51df" x="536" y="456" width="208" height="28" maskUnits="userSpaceOnUse"><rect x="536" y="456" width="208" height="28" fill="white" />undefined</mask><g mask="url(#a51df)"><path d="M 730,470 L 550,470" fill="none" stroke="#9A9A9A" stroke-width="2" stroke-linecap="round" stroke-linejoin="round"/><path d="M 550,470 Q 553.4782608695652,471.7999996869566 558.695652173913,478.99999843478287 Q 558.695652173913,470 552.695652173913,470 Q 558.695652173913,470 558.695652173913,461.00000156521713 Q 553.4782608695652,468.2000003130434 550,470 Z" fill="rgb(154,154,154)" stroke="#9A9A9A" stroke-width="2" stroke-linecap="round" stroke-linejoin="round"/></g>undefined</g><g id="69RfTH7RWHs"><mask id="23b49" x="536" y="516" width="208" height="28" maskUnits="userSpaceOnUse"><rect x="536" y="516" width="208" height="28" fill="white" />undefined</mask><g mask="url(#23b49)"><path d="M 550,530 L 730,530" fill="none" stroke="#9A9A9A" stroke-width="2" stroke-linecap="round" stroke-linejoin="round"/><path d="M 550,530 Q 553.4782608695652,531.7999996869565 558.695652173913,538.9999984347829 Q 558.695652173913,530 552.695652173913,530 Q 558.695652173913,530 558.695652173913,521.0000015652171 Q 553.4782608695652,528.2000003130435 550,530 Z" fill="rgb(154,154,154)" stroke="#9A9A9A" stroke-width="2" stroke-linecap="round" stroke-linejoin="round"/></g>undefined</g><g id="mBpAWKutIY2"><g transform="translate(560 220)"><rect x="0" y="0" width="180.00000000000006" height="56.99999999999999" fill="rgba(255,255,255,0.01)" stroke="rgba(255,255,255,0.01)"/></g><g transform="translate(570, 230) rotate(0, 0, 0)" width="143" height="19"><text text-decoration="none" x="0" fill="rgb(75, 75, 75)" font-size="10pt" font-family="lt_regular"  y="15">2.Request&#160;</text><text text-decoration="none" x="61" fill="rgb(75, 75, 75)" font-size="10pt" font-family="lt_regular"  y="15">register&#160;</text><text text-decoration="none" x="109" fill="rgb(75, 75, 75)" font-size="10pt" font-family="lt_regular"  y="15">page()</text><text text-decoration="none" x="142" fill="#4b4b4b" font-size="10pt" font-family="noto_regular"  y="15"></text></g></g><g id="L4FJVIhONxE"><g transform="translate(560 260)"><rect x="0" y="0" width="180.00000000000006" height="56.99999999999999" fill="rgba(255,255,255,0.01)" stroke="rgba(255,255,255,0.01)"/></g><g transform="translate(570, 270) rotate(0, 0, 0)" width="138" height="19"><text text-decoration="none" x="0" fill="rgb(75, 75, 75)" font-size="10pt" font-family="lt_regular"  y="15">3.&#160;</text><text text-decoration="none" x="14" fill="rgb(75, 75, 75)" font-size="10pt" font-family="lt_regular"  y="15">Return&#160;</text><text text-decoration="none" x="56" fill="rgb(75, 75, 75)" font-size="10pt" font-family="lt_regular"  y="15">register&#160;</text><text text-decoration="none" x="104" fill="rgb(75, 75, 75)" font-size="10pt" font-family="lt_regular"  y="15">page()</text><text text-decoration="none" x="137" fill="#4b4b4b" font-size="10pt" font-family="noto_regular"  y="15"></text></g></g><g id="FdB4xcyWLn1"><g transform="translate(570 340)"><rect x="0" y="0" width="150.00000000000003" height="56.99999999999999" fill="rgba(255,255,255,0.01)" stroke="rgba(255,255,255,0.01)"/></g><g transform="translate(580, 350) rotate(0, 0, 0)" width="109" height="37"><text text-decoration="none" x="0" fill="rgb(75, 75, 75)" font-size="10pt" font-family="lt_regular"  y="14">7.Check&#160;</text><text text-decoration="none" x="50" fill="rgb(75, 75, 75)" font-size="10pt" font-family="lt_regular"  y="14">Username&#160;</text><text text-decoration="none" x="0" fill="rgb(75, 75, 75)" font-size="10pt" font-family="lt_regular"  y="33">Available()</text><text text-decoration="none" x="57" fill="#4b4b4b" font-size="10pt" font-family="noto_regular"  y="33"></text></g></g><g id="HmWg9BgR6Wf"><g transform="translate(560 430)"><rect x="0" y="0" width="180.00000000000006" height="56.99999999999999" fill="rgba(255,255,255,0.01)" stroke="rgba(255,255,255,0.01)"/></g><g transform="translate(570, 440) rotate(0, 0, 0)" width="116" height="19"><text text-decoration="none" x="0" fill="rgb(75, 75, 75)" font-size="10pt" font-family="lt_regular"  y="15">8.Invalid&#160;</text><text text-decoration="none" x="51" fill="rgb(75, 75, 75)" font-size="10pt" font-family="lt_regular"  y="15">username()</text><text text-decoration="none" x="113" fill="#4b4b4b" font-size="10pt" font-family="noto_regular"  y="15"></text></g></g><g id="PVfEefktPb1"><mask id="c72af" x="536" y="476" width="208" height="28" maskUnits="userSpaceOnUse"><rect x="536" y="476" width="208" height="28" fill="white" />undefinedundefined</mask><g mask="url(#c72af)"><path d="M 730,490 L 550,490" fill="none" stroke="#9A9A9A" stroke-width="2" stroke-linecap="round" stroke-linejoin="round"/><path d="M 550,490 Q 553.4782608695652,491.7999996869566 558.695652173913,498.99999843478287 Q 558.695652173913,490 552.695652173913,490 Q 558.695652173913,490 558.695652173913,481.00000156521713 Q 553.4782608695652,488.2000003130434 550,490 Z" fill="rgb(154,154,154)" stroke="#9A9A9A" stroke-width="2" stroke-linecap="round" stroke-linejoin="round"/></g>undefinedundefined</g><g id="ub41KVlLnNp"><g transform="translate(570 480)"><rect x="0" y="0" width="180.00000000000006" height="56.99999999999999" fill="rgba(255,255,255,0.01)" stroke="rgba(255,255,255,0.01)"/></g><g transform="translate(580, 490) rotate(0, 0, 0)" width="85" height="19"><text text-decoration="none" x="0" fill="rgb(75, 75, 75)" font-size="10pt" font-family="lt_regular"  y="15">9.Send&#160;</text><text text-decoration="none" x="42" fill="rgb(75, 75, 75)" font-size="10pt" font-family="lt_regular"  y="15">errors()</text><text text-decoration="none" x="83" fill="#4b4b4b" font-size="10pt" font-family="noto_regular"  y="15"></text></g></g><g id="WKasFF8NXc2"><g transform="translate(570 530)"><rect x="0" y="0" width="180.00000000000006" height="56.99999999999999" fill="rgba(255,255,255,0.01)" stroke="rgba(255,255,255,0.01)"/></g><g transform="translate(580, 540) rotate(0, 0, 0)" width="105" height="19"><text text-decoration="none" x="0" fill="rgb(75, 75, 75)" font-size="10pt" font-family="lt_regular"  y="15">14.Acknowledge()</text><text text-decoration="none" x="102" fill="#4b4b4b" font-size="10pt" font-family="noto_regular"  y="15"></text></g></g><g id="0ZoCmar5YfU"><mask id="97bfb" x="736" y="416" width="188" height="28" maskUnits="userSpaceOnUse"><rect x="736" y="416" width="188" height="28" fill="white" />undefined</mask><g mask="url(#97bfb)"><path d="M 910,430 L 750,430" fill="none" stroke="#9A9A9A" stroke-width="2" stroke-linecap="round" stroke-linejoin="round"/><path d="M 750,430 Q 753.4782608695652,431.7999996869566 758.695652173913,438.99999843478287 Q 758.695652173913,430 752.695652173913,430 Q 758.695652173913,430 758.695652173913,421.00000156521713 Q 753.4782608695652,428.2000003130434 750,430 Z" fill="rgb(154,154,154)" stroke="#9A9A9A" stroke-width="2" stroke-linecap="round" stroke-linejoin="round"/></g>undefined</g><g id="QrEqpBfnFEk"><g transform="translate(769.9999999999999 390)"><rect x="0" y="0" width="180.00000000000006" height="56.99999999999999" fill="rgba(255,255,255,0.01)" stroke="rgba(255,255,255,0.01)"/></g><g transform="translate(779.9999999999999, 400) rotate(0, 0, 0)" width="80" height="19"><text text-decoration="none" x="0" fill="rgb(75, 75, 75)" font-size="10pt" font-family="lt_regular"  y="15">11.POST&#160;</text><text text-decoration="none" x="55" fill="rgb(75, 75, 75)" font-size="10pt" font-family="lt_regular"  y="15">data</text><text text-decoration="none" x="79" fill="#4b4b4b" font-size="10pt" font-family="noto_regular"  y="15"></text></g></g><g id="bkFlF4SidfN"><g transform="translate(770 470)"><rect x="0" y="0" width="180.00000000000006" height="56.99999999999999" fill="rgba(255,255,255,0.01)" stroke="rgba(255,255,255,0.01)"/></g><g transform="translate(780, 480) rotate(0, 0, 0)" width="109" height="19"><text text-decoration="none" x="0" fill="#4b4b4b" font-size="10pt" font-family="lt_regular"  y="15">12.Valid&#160;</text><text text-decoration="none" x="50" fill="#4b4b4b" font-size="10pt" font-family="lt_regular"  y="15">new&#160;</text><text text-decoration="none" x="77" fill="#4b4b4b" font-size="10pt" font-family="lt_regular"  y="15">user()</text><text text-decoration="none" x="108" fill="#4b4b4b" font-size="10pt" font-family="noto_regular"  y="15"></text></g></g><g id="rF0tHhiwDnQ"><mask id="ae442" x="916" y="456" width="198" height="28" maskUnits="userSpaceOnUse"><rect x="916" y="456" width="198" height="28" fill="white" />undefined</mask><g mask="url(#ae442)"><path d="M 1100,470 L 930,470" fill="none" stroke="#9A9A9A" stroke-width="2" stroke-linecap="round" stroke-linejoin="round"/><path d="M 1100,470 Q 1096.5217391304348,468.2000003130434 1091.304347826087,461.00000156521713 Q 1091.304347826087,470 1097.304347826087,470 Q 1091.304347826087,470 1091.304347826087,478.99999843478287 Q 1096.5217391304348,471.7999996869566 1100,470 Z" fill="rgb(154,154,154)" stroke="#9A9A9A" stroke-width="2" stroke-linecap="round" stroke-linejoin="round"/></g>undefined</g><g id="JGXoQYIO3xF"><g transform="translate(969.9999999999999 440.00000000000006)"><rect x="0" y="0" width="180.00000000000006" height="56.99999999999999" fill="rgba(255,255,255,0.01)" stroke="rgba(255,255,255,0.01)"/></g><g transform="translate(979.9999999999999, 450.00000000000006) rotate(0, 0, 0)" width="53" height="19"><text text-decoration="none" x="0" fill="rgb(75, 75, 75)" font-size="10pt" font-family="lt_regular"  y="15">13.Save()</text><text text-decoration="none" x="52" fill="#4b4b4b" font-size="10pt" font-family="noto_regular"  y="15"></text></g></g><g id="avEjaG39hhx"><g transform="translate(330 60)"><ellipse cx="20" cy="10" rx="10" ry="10" fill="rgb(245,247,249)" stroke="#0c2f4e" stroke-width="2" stroke-linecap="round" stroke-linejoin="round" stroke-dasharray="0 0"/><path d="M 20,20 L 20,48 L 40,80 M 20,48 L 0,80 M 2,30 L 38,30" fill="none" stroke="#0c2f4e" stroke-width="2" stroke-linecap="round" stroke-linejoin="round" stroke-dasharray="0 0"/><rect x="0" y="0" width="40" height="80" fill="rgba(255,255,255,0.01)" stroke="rgba(255,255,255,0.01)" stroke-width="2" stroke-linecap="round" stroke-linejoin="round" stroke-dasharray="0 0"/></g><g transform="translate(350, 150) rotate(0, 0, 0)" width="0" height="18"><text text-decoration="none" x="0" fill="#4b4b4b" font-size="10pt" font-family="noto_regular"  y="15"></text></g></g><g id="5E3DgPThWSa"><g><path d="M 909,498 L 750,500" fill="none" stroke="#7E7E7E" stroke-width="2" stroke-linecap="round" stroke-linejoin="round"/><path d="M 750,500 Q 753.5006254487539,501.7561090562174 758.8081629081883,508.8899159016602 Q 758.6949643355815,499.8906293794266 752.6954389440302,499.96609510762227 Q 758.6949643355815,499.8906293794266 758.5817657629748,490.89134285719314 Q 753.4553460197112,498.156394447324 750,500 Z" fill="rgb(126,126,126)" stroke="#7E7E7E" stroke-width="2" stroke-linecap="round" stroke-linejoin="round"/></g></g></svg>